# xmcd CD database file
#
# Track frame offsets:
#	150
#	23180
#	42323
#	60331
#	77775
#	98752
#	117652
#	134316
#	152436
#	172172
#	193245
#	208975
#	233970
#	253505
#	271173
#	290449
#
# Disc length: 4178 seconds
#
# Revision: 0
# Processed by: cddbd v1.4PL0 Copyright (c) Steve Scherf et al.
# Submitted via: CDex 1.50Beta7
#
DISCID=e7105010
DTITLE=Joe Cocker - The Best Of Joe Cocker
DYEAR=1900
DGENRE=Blues
TTITLE0=Unchain My Heart
TTITLE1=You Can Leave Your Hat On
TTITLE2=When Night Comes
TTITLE3=Up Where We Belong
TTITLE4=Now That The Magic Has Gone
TTITLE5=Dont You Love Me Anymore
TTITLE6=I Can Hear The River
TTITLE7=Sorry Seems To Be The Hardest Word
TTITLE8=Shelter Me
TTITLE9=(All I Know) Feels Like Forever
TTITLE10=Night Calls
TTITLE11=Dont Let The Sun Go Down On Me
TTITLE12=Now That Your Gone
TTITLE13=Civilized Man
TTITLE14=When A Woman Cries
TTITLE15=With A Little Help From My Friends
EXTD=
EXTT0=
EXTT1=
EXTT2=
EXTT3=
EXTT4=
EXTT5=
EXTT6=
EXTT7=
EXTT8=
EXTT9=
EXTT10=
EXTT11=
EXTT12=
EXTT13=
EXTT14=
EXTT15=
PLAYORDER=
